<svg width="12" height="12" viewBox="0 0 12 12" fill="none" xmlns="http://www.w3.org/2000/svg">
<path d="M7.75072 6.99974H7.35572L7.21572 6.86474C7.52819 6.50173 7.75657 6.07413 7.8845 5.61255C8.01242 5.15097 8.03675 4.66682 7.95572 4.19474C7.72072 2.80474 6.56072 1.69474 5.16072 1.52474C4.66853 1.46248 4.16861 1.51363 3.69923 1.67429C3.22985 1.83495 2.80344 2.10085 2.45264 2.45166C2.10183 2.80247 1.83592 3.22887 1.67526 3.69826C1.51461 4.16764 1.46345 4.66755 1.52572 5.15974C1.69572 6.55974 2.80572 7.71974 4.19572 7.95474C4.6678 8.03577 5.15195 8.01145 5.61353 7.88352C6.07511 7.75559 6.5027 7.52722 6.86572 7.21474L7.00072 7.35474V7.74974L9.12572 9.87474C9.33072 10.0797 9.66572 10.0797 9.87072 9.87474C10.0757 9.66974 10.0757 9.33474 9.87072 9.12974L7.75072 6.99974ZM4.75072 6.99974C3.50572 6.99974 2.50072 5.99474 2.50072 4.74974C2.50072 3.50474 3.50572 2.49974 4.75072 2.49974C5.99572 2.49974 7.00072 3.50474 7.00072 4.74974C7.00072 5.99474 5.99572 6.99974 4.75072 6.99974Z" fill="#111111"/>
</svg>
