<svg width="15" height="14" viewBox="0 0 15 14" fill="none" xmlns="http://www.w3.org/2000/svg">
<path d="M13.5 8H8.5V13C8.5 13.2652 8.39464 13.5196 8.20711 13.7071C8.01957 13.8946 7.76522 14 7.5 14C7.23478 14 6.98043 13.8946 6.79289 13.7071C6.60536 13.5196 6.5 13.2652 6.5 13V8H1.5C1.23478 8 0.98043 7.89464 0.792893 7.70711C0.605357 7.51957 0.5 7.26522 0.5 7C0.5 6.73478 0.605357 6.48043 0.792893 6.29289C0.98043 6.10536 1.23478 6 1.5 6H6.5V1C6.5 0.734784 6.60536 0.480429 6.79289 0.292893C6.98043 0.105357 7.23478 0 7.5 0C7.76522 0 8.01957 0.105357 8.20711 0.292893C8.39464 0.480429 8.5 0.734784 8.5 1V6H13.5C13.7652 6 14.0196 6.10536 14.2071 6.29289C14.3946 6.48043 14.5 6.73478 14.5 7C14.5 7.26522 14.3946 7.51957 14.2071 7.70711C14.0196 7.89464 13.7652 8 13.5 8Z" fill="white"/>
</svg>
