<svg width="39" height="39" viewBox="0 0 39 39" fill="none" xmlns="http://www.w3.org/2000/svg">
<circle cx="19.5" cy="19.5" r="19.5" fill="#FFE8E8"/>
<path d="M19.0676 10.1005C19.1661 10.035 19.2817 10 19.4 10C19.5183 10 19.6339 10.035 19.7324 10.1005C21.9978 11.6277 24.5803 12.6211 27.2852 13.0057C27.4281 13.0262 27.5589 13.0975 27.6534 13.2067C27.748 13.3158 27.8 13.4553 27.8 13.5997V18.9997C27.8 23.6689 25.0316 27.0757 19.616 29.1601C19.477 29.2137 19.323 29.2137 19.184 29.1601C13.7696 27.0757 11 23.6677 11 18.9997V13.5997C11 13.4551 11.0522 13.3154 11.147 13.2063C11.2418 13.0972 11.3729 13.0259 11.516 13.0057C14.2205 12.6209 16.8025 11.6276 19.0676 10.1005ZM19.4 14.7997C19.2409 14.7997 19.0883 14.8629 18.9757 14.9754C18.8632 15.0879 18.8 15.2406 18.8 15.3997V21.3997C18.8 21.5588 18.8632 21.7114 18.9757 21.824C19.0883 21.9365 19.2409 21.9997 19.4 21.9997C19.5591 21.9997 19.7117 21.9365 19.8243 21.824C19.9368 21.7114 20 21.5588 20 21.3997V15.3997C20 15.2406 19.9368 15.0879 19.8243 14.9754C19.7117 14.8629 19.5591 14.7997 19.4 14.7997ZM19.4 24.9997C19.6387 24.9997 19.8676 24.9049 20.0364 24.7361C20.2052 24.5673 20.3 24.3384 20.3 24.0997C20.3 23.861 20.2052 23.6321 20.0364 23.4633C19.8676 23.2945 19.6387 23.1997 19.4 23.1997C19.1613 23.1997 18.9324 23.2945 18.7636 23.4633C18.5948 23.6321 18.5 23.861 18.5 24.0997C18.5 24.3384 18.5948 24.5673 18.7636 24.7361C18.9324 24.9049 19.1613 24.9997 19.4 24.9997Z" fill="#F30808"/>
</svg>
