<svg width="39" height="39" viewBox="0 0 39 39" fill="none" xmlns="http://www.w3.org/2000/svg">
<circle cx="19.5" cy="19.5" r="19.5" fill="#E2FAF1" fill-opacity="0.12"/>
<path d="M19.6672 9.50088C19.7657 9.43535 19.8813 9.40039 19.9996 9.40039C20.1179 9.40039 20.2335 9.43535 20.332 9.50088C22.5974 11.0281 25.1799 12.0214 27.8848 12.4061C28.0277 12.4266 28.1585 12.4979 28.253 12.607C28.3476 12.7162 28.3996 12.8557 28.3996 13.0001V18.4001C28.3996 23.0693 25.6312 26.4761 20.2156 28.5605C20.0766 28.6141 19.9226 28.6141 19.7836 28.5605C14.3692 26.4761 11.5996 23.0681 11.5996 18.4001V13.0001C11.5996 12.8555 11.6518 12.7158 11.7466 12.6067C11.8415 12.4976 11.9725 12.4263 12.1156 12.4061C14.8201 12.0213 17.4021 11.0279 19.6672 9.50088ZM19.9996 14.2001C19.8405 14.2001 19.6879 14.2633 19.5753 14.3758C19.4628 14.4883 19.3996 14.641 19.3996 14.8001V20.8001C19.3996 20.9592 19.4628 21.1118 19.5753 21.2243C19.6879 21.3369 19.8405 21.4001 19.9996 21.4001C20.1587 21.4001 20.3114 21.3369 20.4239 21.2243C20.5364 21.1118 20.5996 20.9592 20.5996 20.8001V14.8001C20.5996 14.641 20.5364 14.4883 20.4239 14.3758C20.3114 14.2633 20.1587 14.2001 19.9996 14.2001ZM19.9996 24.4001C20.2383 24.4001 20.4672 24.3053 20.636 24.1365C20.8048 23.9677 20.8996 23.7388 20.8996 23.5001C20.8996 23.2614 20.8048 23.0325 20.636 22.8637C20.4672 22.6949 20.2383 22.6001 19.9996 22.6001C19.7609 22.6001 19.532 22.6949 19.3632 22.8637C19.1944 23.0325 19.0996 23.2614 19.0996 23.5001C19.0996 23.7388 19.1944 23.9677 19.3632 24.1365C19.532 24.3053 19.7609 24.4001 19.9996 24.4001Z" fill="white"/>
</svg>
