<svg width="10" height="6" viewBox="0 0 10 6" fill="none" xmlns="http://www.w3.org/2000/svg">
<path d="M4.64583 5.95833C4.53472 5.95833 4.43056 5.94097 4.33333 5.90625C4.23611 5.87153 4.14583 5.8125 4.0625 5.72917L0.229167 1.89583C0.0763889 1.74306 0 1.54861 0 1.3125C0 1.07639 0.0763889 0.881944 0.229167 0.729167C0.381944 0.576389 0.576389 0.5 0.8125 0.5C1.04861 0.5 1.24306 0.576389 1.39583 0.729167L4.64583 3.97917L7.89583 0.729167C8.04861 0.576389 8.24306 0.5 8.47917 0.5C8.71528 0.5 8.90972 0.576389 9.0625 0.729167C9.21528 0.881944 9.29167 1.07639 9.29167 1.3125C9.29167 1.54861 9.21528 1.74306 9.0625 1.89583L5.22917 5.72917C5.14583 5.8125 5.05556 5.87153 4.95833 5.90625C4.86111 5.94097 4.75694 5.95833 4.64583 5.95833Z" fill="#B9B9B9"/>
</svg>
