<svg width="39" height="39" viewBox="0 0 39 39" fill="none" xmlns="http://www.w3.org/2000/svg">
<path d="M19.9992 8.40002V13.8C19.9992 14.2774 20.1889 14.7353 20.5264 15.0728C20.864 15.4104 21.3218 15.6 21.7992 15.6H27.1992V25.8C27.1992 26.2774 27.0096 26.7353 26.672 27.0728C26.3344 27.4104 25.8766 27.6 25.3992 27.6H19.6908C20.5871 26.5147 21.1129 25.1713 21.1914 23.7659C21.27 22.3606 20.8972 20.9669 20.1275 19.7884C19.3578 18.61 18.2315 17.7084 16.9131 17.2155C15.5947 16.7226 14.1533 16.664 12.7992 17.0484V10.2C12.7992 9.72263 12.9889 9.2648 13.3264 8.92723C13.664 8.58967 14.1218 8.40002 14.5992 8.40002H19.9992ZM21.1992 8.70002V13.8C21.1992 13.9592 21.2624 14.1118 21.375 14.2243C21.4875 14.3368 21.6401 14.4 21.7992 14.4H26.8992L21.1992 8.70002ZM19.9992 23.4C19.9992 24.8322 19.4303 26.2057 18.4176 27.2184C17.4049 28.2311 16.0314 28.8 14.5992 28.8C13.167 28.8 11.7935 28.2311 10.7808 27.2184C9.76815 26.2057 9.19922 24.8322 9.19922 23.4C9.19922 21.9679 9.76815 20.5943 10.7808 19.5816C11.7935 18.569 13.167 18 14.5992 18C16.0314 18 17.4049 18.569 18.4176 19.5816C19.4303 20.5943 19.9992 21.9679 19.9992 23.4ZM17.424 21.1752C17.3683 21.1193 17.3021 21.075 17.2292 21.0448C17.1563 21.0145 17.0781 20.999 16.9992 20.999C16.9203 20.999 16.8422 21.0145 16.7693 21.0448C16.6964 21.075 16.6302 21.1193 16.5744 21.1752L13.3992 24.3516L12.624 23.5752C12.5114 23.4626 12.3585 23.3993 12.1992 23.3993C12.0399 23.3993 11.8871 23.4626 11.7744 23.5752C11.6618 23.6879 11.5985 23.8407 11.5985 24C11.5985 24.1594 11.6618 24.3122 11.7744 24.4248L12.9744 25.6248C13.0302 25.6807 13.0964 25.725 13.1693 25.7553C13.2422 25.7855 13.3203 25.8011 13.3992 25.8011C13.4781 25.8011 13.5563 25.7855 13.6292 25.7553C13.7021 25.725 13.7683 25.6807 13.824 25.6248L17.424 22.0248C17.4799 21.9691 17.5242 21.9029 17.5545 21.83C17.5847 21.7571 17.6003 21.6789 17.6003 21.6C17.6003 21.5211 17.5847 21.443 17.5545 21.3701C17.5242 21.2972 17.4799 21.231 17.424 21.1752Z" fill="#0EDB8A"/>
<circle cx="19.5" cy="19.5" r="19.5" fill="#0EDB8A" fill-opacity="0.12"/>
</svg>
