<svg width="28" height="24" viewBox="0 0 28 24" fill="none" xmlns="http://www.w3.org/2000/svg">
<path d="M0 4.5C0 3.30653 0.474106 2.16193 1.31802 1.31802C2.16193 0.474106 3.30653 9.11096e-09 4.5 9.11096e-09H8.464C8.92364 -3.31544e-05 9.37878 0.0904692 9.80345 0.266339C10.2281 0.442209 10.614 0.700003 10.939 1.025L13 3.085L9.525 6.561C9.2438 6.84202 8.86255 6.99992 8.465 7H0V4.5ZM0 9V19.5C0 20.6935 0.474106 21.8381 1.31802 22.682C2.16193 23.5259 3.30653 24 4.5 24H23.5C24.6935 24 25.8381 23.5259 26.682 22.682C27.5259 21.8381 28 20.6935 28 19.5V8C28 6.80653 27.5259 5.66193 26.682 4.81802C25.8381 3.97411 24.6935 3.5 23.5 3.5H15.414L10.939 7.975C10.614 8.3 10.2281 8.55779 9.80345 8.73366C9.37878 8.90953 8.92364 9.00003 8.464 9H0Z" fill="#D3B033"/>
</svg>
