<svg width="39" height="39" viewBox="0 0 39 39" fill="none" xmlns="http://www.w3.org/2000/svg">
<path d="M27.4895 12.5699C28.0242 13.2586 28.4024 14.0554 28.5978 14.9051C28.7932 15.7548 28.8011 16.6368 28.6209 17.4899C28.4407 18.3429 28.0768 19.1464 27.5545 19.8445C27.0322 20.5425 26.364 21.1184 25.5965 21.5319C24.9475 21.8829 24.1665 21.6669 23.6445 21.1459L17.8545 15.3549C17.3325 14.8329 17.1165 14.0519 17.4665 13.4029C17.88 12.6353 18.4559 11.9669 19.154 11.4445C19.8522 10.9221 20.6558 10.5581 21.509 10.3779C22.3621 10.1977 23.2443 10.2056 24.0941 10.4011C24.9439 10.5967 25.7408 10.975 26.4295 11.5099L28.7194 9.21994C28.7886 9.14828 28.8713 9.0911 28.9628 9.05175C29.0543 9.0124 29.1527 8.99167 29.2523 8.99075C29.3519 8.98984 29.4506 9.00877 29.5428 9.04644C29.635 9.08411 29.7188 9.13976 29.7892 9.21014C29.8597 9.28053 29.9154 9.36424 29.9532 9.4564C29.9909 9.54855 30.01 9.6473 30.0091 9.74688C30.0083 9.84647 29.9877 9.94489 29.9484 10.0364C29.9091 10.1279 29.8521 10.2107 29.7805 10.2799L27.4895 12.5699ZM11.2795 28.7799L13.5695 26.4899C14.2581 27.0247 15.0549 27.4029 15.9046 27.5983C16.7543 27.7937 17.6363 27.8016 18.4894 27.6214C19.3424 27.4412 20.1459 27.0773 20.844 26.555C21.5421 26.0327 22.1179 25.3645 22.5315 24.5969C22.8825 23.9479 22.6665 23.1669 22.1445 22.6449L16.3545 16.8549C15.8325 16.3329 15.0515 16.1169 14.4025 16.4669C13.6348 16.8805 12.9664 17.4564 12.444 18.1545C11.9216 18.8527 11.5576 19.6563 11.3774 20.5094C11.1972 21.3626 11.2052 22.2448 11.4007 23.0946C11.5962 23.9443 11.9745 24.7413 12.5095 25.4299L10.2195 27.7199C10.1478 27.7891 10.0906 27.8718 10.0513 27.9633C10.0119 28.0548 9.99118 28.1532 9.99027 28.2528C9.98935 28.3524 10.0083 28.4511 10.046 28.5433C10.0836 28.6355 10.1393 28.7193 10.2097 28.7897C10.28 28.8602 10.3638 28.9159 10.4559 28.9537C10.5481 28.9914 10.6468 29.0104 10.7464 29.0096C10.846 29.0088 10.9444 28.9882 11.0359 28.9489C11.1274 28.9096 11.2102 28.8515 11.2795 28.7799Z" fill="#4A87FF"/>
<circle cx="19.5" cy="19.5" r="19.5" fill="#4A87FF" fill-opacity="0.12"/>
</svg>
