<svg width="33" height="34" viewBox="0 0 33 34" fill="none" xmlns="http://www.w3.org/2000/svg">
<g clip-path="url(#clip0_444_7614)">
<path d="M16.5 3.25C24.0941 3.25 30.25 9.40588 30.25 17C30.25 24.5941 24.0941 30.75 16.5 30.75C8.90588 30.75 2.75 24.5941 2.75 17C2.75 9.40588 8.90588 3.25 16.5 3.25ZM16.5 6C13.5826 6 10.7847 7.15893 8.72183 9.22183C6.65893 11.2847 5.5 14.0826 5.5 17C5.5 19.9174 6.65893 22.7153 8.72183 24.7782C10.7847 26.8411 13.5826 28 16.5 28C19.4174 28 22.2153 26.8411 24.2782 24.7782C26.3411 22.7153 27.5 19.9174 27.5 17C27.5 14.0826 26.3411 11.2847 24.2782 9.22183C22.2153 7.15893 19.4174 6 16.5 6ZM16.5 21.125C17.047 21.125 17.5716 21.3423 17.9584 21.7291C18.3452 22.1159 18.5625 22.6405 18.5625 23.1875C18.5625 23.7345 18.3452 24.2591 17.9584 24.6459C17.5716 25.0327 17.047 25.25 16.5 25.25C15.953 25.25 15.4284 25.0327 15.0416 24.6459C14.6548 24.2591 14.4375 23.7345 14.4375 23.1875C14.4375 22.6405 14.6548 22.1159 15.0416 21.7291C15.4284 21.3423 15.953 21.125 16.5 21.125ZM16.5 14.9375C17.047 14.9375 17.5716 15.1548 17.9584 15.5416C18.3452 15.9284 18.5625 16.453 18.5625 17C18.5625 17.547 18.3452 18.0716 17.9584 18.4584C17.5716 18.8452 17.047 19.0625 16.5 19.0625C15.953 19.0625 15.4284 18.8452 15.0416 18.4584C14.6548 18.0716 14.4375 17.547 14.4375 17C14.4375 16.453 14.6548 15.9284 15.0416 15.5416C15.4284 15.1548 15.953 14.9375 16.5 14.9375ZM16.5 8.75C17.047 8.75 17.5716 8.9673 17.9584 9.35409C18.3452 9.74089 18.5625 10.2655 18.5625 10.8125C18.5625 11.3595 18.3452 11.8841 17.9584 12.2709C17.5716 12.6577 17.047 12.875 16.5 12.875C15.953 12.875 15.4284 12.6577 15.0416 12.2709C14.6548 11.8841 14.4375 11.3595 14.4375 10.8125C14.4375 10.2655 14.6548 9.74089 15.0416 9.35409C15.4284 8.9673 15.953 8.75 16.5 8.75Z" fill="#39409A"/>
</g>
<defs>
<clipPath id="clip0_444_7614">
<rect width="33" height="33" fill="white" transform="translate(0 0.5)"/>
</clipPath>
</defs>
</svg>
