<svg width="25" height="24" viewBox="0 0 25 24" fill="none" xmlns="http://www.w3.org/2000/svg">
<mask id="path-1-inside-1_444_7622" fill="white">
<path d="M13.892 13.5L11.979 15.414L12.687 16.121L15.807 13L12.687 9.879L11.979 10.587L13.892 12.5H9.192V13.5H13.892ZM5.116 19C4.65534 19 4.27067 18.846 3.962 18.538C3.65334 18.23 3.49934 17.8453 3.5 17.384V6.616C3.5 6.15533 3.65434 5.771 3.963 5.463C4.27167 5.155 4.65567 5.00067 5.115 5H10.096L12.096 7H19.885C20.345 7 20.7293 7.15433 21.038 7.463C21.3467 7.77167 21.5007 8.156 21.5 8.616V17.385C21.5 17.845 21.346 18.2293 21.038 18.538C20.73 18.8467 20.3457 19.0007 19.885 19H5.116ZM5.116 18H19.885C20.0643 18 20.2117 17.9423 20.327 17.827C20.4423 17.7117 20.5 17.5643 20.5 17.385V8.615C20.5 8.43567 20.4423 8.28833 20.327 8.173C20.2117 8.05767 20.0643 8 19.885 8H11.695L9.695 6H5.115C4.93567 6 4.78834 6.05767 4.673 6.173C4.55767 6.28833 4.5 6.436 4.5 6.616V17.385C4.5 17.5643 4.55767 17.7117 4.673 17.827C4.78834 17.9423 4.936 18 5.116 18Z"/>
</mask>
<path d="M13.892 13.5L11.979 15.414L12.687 16.121L15.807 13L12.687 9.879L11.979 10.587L13.892 12.5H9.192V13.5H13.892ZM5.116 19C4.65534 19 4.27067 18.846 3.962 18.538C3.65334 18.23 3.49934 17.8453 3.5 17.384V6.616C3.5 6.15533 3.65434 5.771 3.963 5.463C4.27167 5.155 4.65567 5.00067 5.115 5H10.096L12.096 7H19.885C20.345 7 20.7293 7.15433 21.038 7.463C21.3467 7.77167 21.5007 8.156 21.5 8.616V17.385C21.5 17.845 21.346 18.2293 21.038 18.538C20.73 18.8467 20.3457 19.0007 19.885 19H5.116ZM5.116 18H19.885C20.0643 18 20.2117 17.9423 20.327 17.827C20.4423 17.7117 20.5 17.5643 20.5 17.385V8.615C20.5 8.43567 20.4423 8.28833 20.327 8.173C20.2117 8.05767 20.0643 8 19.885 8H11.695L9.695 6H5.115C4.93567 6 4.78834 6.05767 4.673 6.173C4.55767 6.28833 4.5 6.436 4.5 6.616V17.385C4.5 17.5643 4.55767 17.7117 4.673 17.827C4.78834 17.9423 4.936 18 5.116 18Z" fill="white"/>
<path d="M5.5 18V6H3.5V18H5.5ZM13.892 13.5L15.3066 14.9138L18.7186 11.5H13.892V13.5ZM11.979 15.414L10.5644 14.0002L9.14995 15.4154L10.5658 16.8292L11.979 15.414ZM12.687 16.121L11.2738 17.5362L12.6882 18.9487L14.1014 17.535L12.687 16.121ZM15.807 13L17.2214 14.414L18.635 13L17.2214 11.586L15.807 13ZM12.687 9.879L14.1014 8.46501L12.6872 7.05035L11.2728 8.46479L12.687 9.879ZM11.979 10.587L10.5648 9.17279L9.15057 10.587L10.5648 12.0012L11.979 10.587ZM13.892 12.5V14.5H18.7204L15.3062 11.0858L13.892 12.5ZM9.192 12.5V10.5H7.192V12.5H9.192ZM9.192 13.5H7.192V15.5H9.192V13.5ZM3.5 17.384L5.5 17.3869V17.384H3.5ZM5.115 5V3L5.1121 3L5.115 5ZM10.096 5L11.5102 3.58579L10.9244 3H10.096V5ZM12.096 7L10.6818 8.41421L11.2676 9H12.096V7ZM21.5 8.616L19.5 8.6131V8.616H21.5ZM19.885 19L19.8879 17H19.885V19ZM5.116 18V16V18ZM20.5 17.385H18.5H20.5ZM19.885 8V6V8ZM11.695 8L10.2808 9.41421L10.8666 10H11.695V8ZM9.695 6L11.1092 4.58579L10.5234 4H9.695V6ZM4.5 6.616H2.5H4.5ZM12.4774 12.0862L10.5644 14.0002L13.3936 16.8278L15.3066 14.9138L12.4774 12.0862ZM10.5658 16.8292L11.2738 17.5362L14.1002 14.7058L13.3922 13.9988L10.5658 16.8292ZM14.1014 17.535L17.2214 14.414L14.3926 11.586L11.2726 14.707L14.1014 17.535ZM17.2214 11.586L14.1014 8.46501L11.2726 11.293L14.3926 14.414L17.2214 11.586ZM11.2728 8.46479L10.5648 9.17279L13.3932 12.0012L14.1012 11.2932L11.2728 8.46479ZM10.5648 12.0012L12.4778 13.9142L15.3062 11.0858L13.3932 9.17279L10.5648 12.0012ZM13.892 10.5H9.192V14.5H13.892V10.5ZM7.192 12.5V13.5H11.192V12.5H7.192ZM9.192 15.5H13.892V11.5H9.192V15.5ZM5.116 17C5.11187 17 5.15623 17.0001 5.22534 17.0278C5.29661 17.0563 5.34813 17.0958 5.37469 17.1223L2.54932 19.9537C3.25581 20.6587 4.15886 21 5.116 21V17ZM5.37469 17.1223C5.40221 17.1497 5.44263 17.2025 5.47173 17.2752C5.49994 17.3456 5.49999 17.3909 5.5 17.3869L1.5 17.3811C1.49862 18.3403 1.84033 19.2463 2.54932 19.9537L5.37469 17.1223ZM5.5 17.384V6.616H1.5V17.384H5.5ZM5.5 6.616C5.5 6.61237 5.49981 6.65754 5.4717 6.72753C5.44272 6.79971 5.40265 6.85184 5.37569 6.87874L2.55032 4.04726C1.84269 4.75336 1.5 5.65748 1.5 6.616H5.5ZM5.37569 6.87874C5.34998 6.90439 5.29922 6.94349 5.22834 6.97198C5.1595 6.99964 5.11484 7 5.1179 7L5.1121 3C4.15545 3.00139 3.25485 3.34425 2.55032 4.04726L5.37569 6.87874ZM5.115 7H10.096V3H5.115V7ZM8.68179 6.41421L10.6818 8.41421L13.5102 5.58579L11.5102 3.58579L8.68179 6.41421ZM12.096 9H19.885V5H12.096V9ZM19.885 9C19.8879 9 19.8426 8.99968 19.773 8.9717C19.7012 8.94289 19.6499 8.90328 19.6238 8.87721L22.4522 6.04879C21.7466 5.3432 20.8437 5 19.885 5V9ZM19.6238 8.87721C19.5974 8.85087 19.5575 8.79903 19.5285 8.72664C19.5003 8.65635 19.5 8.61053 19.5 8.6131L23.5 8.6189C23.5014 7.65926 23.1586 6.75514 22.4522 6.04879L19.6238 8.87721ZM19.5 8.616V17.385H23.5V8.616H19.5ZM19.5 17.385C19.5 17.3884 19.5002 17.3436 19.528 17.2744C19.5566 17.203 19.5961 17.1516 19.6223 17.1253L22.4537 19.9507C23.1581 19.2448 23.5 18.3424 23.5 17.385H19.5ZM19.6223 17.1253C19.6494 17.0981 19.702 17.0577 19.7749 17.0285C19.8455 17.0002 19.8912 17 19.8879 17L19.8821 21C20.8416 21.0014 21.7469 20.6591 22.4537 19.9507L19.6223 17.1253ZM19.885 17H5.116V21H19.885V17ZM5.116 20H19.885V16H5.116V20ZM19.885 20C20.5368 20 21.2117 19.7707 21.7412 19.2412L18.9128 16.4128C19.044 16.2816 19.2098 16.1692 19.401 16.0943C19.5886 16.0209 19.7583 16 19.885 16V20ZM21.7412 19.2412C22.2707 18.7117 22.5 18.0368 22.5 17.385H18.5C18.5 17.2583 18.5209 17.0886 18.5943 16.901C18.6692 16.7098 18.7816 16.544 18.9128 16.4128L21.7412 19.2412ZM22.5 17.385V8.615H18.5V17.385H22.5ZM22.5 8.615C22.5 7.96322 22.2707 7.28829 21.7412 6.75879L18.9128 9.58721C18.7816 9.456 18.6692 9.29019 18.5943 9.09896C18.5209 8.91145 18.5 8.74173 18.5 8.615H22.5ZM21.7412 6.75879C21.2117 6.22928 20.5368 6 19.885 6V10C19.7583 10 19.5886 9.97907 19.401 9.90567C19.2098 9.83082 19.044 9.71843 18.9128 9.58721L21.7412 6.75879ZM19.885 6H11.695V10H19.885V6ZM13.1092 6.58579L11.1092 4.58579L8.28079 7.41421L10.2808 9.41421L13.1092 6.58579ZM9.695 4H5.115V8H9.695V4ZM5.115 4C4.46322 4 3.7883 4.22927 3.25879 4.75879L6.08722 7.58721C5.956 7.71843 5.79019 7.83083 5.59896 7.90567C5.41144 7.97907 5.24173 8 5.115 8V4ZM3.25879 4.75879C2.72779 5.28979 2.5 5.96587 2.5 6.616H6.5C6.5 6.74148 6.47937 6.91051 6.40623 7.09778C6.3316 7.2889 6.21919 7.45524 6.08722 7.58721L3.25879 4.75879ZM2.5 6.616V17.385H6.5V6.616H2.5ZM2.5 17.385C2.5 18.0368 2.72928 18.7117 3.25879 19.2412L6.08722 16.4128C6.21843 16.544 6.33083 16.7098 6.40568 16.901C6.47907 17.0886 6.5 17.2583 6.5 17.385H2.5ZM3.25879 19.2412C3.78979 19.7722 4.46587 20 5.116 20V16C5.24149 16 5.41051 16.0206 5.59778 16.0938C5.78891 16.1684 5.95524 16.2808 6.08722 16.4128L3.25879 19.2412Z" fill="white" mask="url(#path-1-inside-1_444_7622)"/>
</svg>
