<svg width="39" height="39" viewBox="0 0 39 39" fill="none" xmlns="http://www.w3.org/2000/svg">
<path d="M26.4899 12.5699C27.309 13.6215 27.7525 14.917 27.7499 16.2499C27.7499 17.0899 27.5769 17.8899 27.2649 18.6159C26.3998 18.2098 25.4557 17.9995 24.4999 17.9999C23.142 17.9977 21.8178 18.4228 20.7149 19.2149L16.8549 15.3549C16.3329 14.8329 16.1169 14.0519 16.4669 13.4029C16.8805 12.6353 17.4564 11.9669 18.1545 11.4445C18.8527 10.9221 19.6563 10.5581 20.5094 10.3779C21.3626 10.1977 22.2448 10.2056 23.0946 10.4011C23.9443 10.5967 24.7413 10.975 25.4299 11.5099L27.7199 9.21994C27.7891 9.14828 27.8718 9.0911 27.9633 9.05175C28.0548 9.0124 28.1532 8.99167 28.2528 8.99075C28.3524 8.98984 28.4511 9.00877 28.5433 9.04644C28.6355 9.08411 28.7193 9.13976 28.7897 9.21014C28.8602 9.28053 28.9159 9.36424 28.9537 9.4564C28.9914 9.54855 29.0104 9.6473 29.0096 9.74688C29.0088 9.84647 28.9882 9.94489 28.9489 10.0364C28.9096 10.1279 28.8525 10.2107 28.7809 10.2799L26.4899 12.5699ZM17.9999 24.4999C17.9977 23.142 18.4228 21.8178 19.2149 20.7149L15.3549 16.8549C14.8329 16.3329 14.0519 16.1169 13.4029 16.4669C12.6353 16.8805 11.9669 17.4564 11.4445 18.1545C10.9221 18.8527 10.5581 19.6563 10.3779 20.5094C10.1977 21.3626 10.2056 22.2448 10.4011 23.0946C10.5967 23.9443 10.975 24.7413 11.5099 25.4299L9.21994 27.7199C9.14828 27.7891 9.0911 27.8718 9.05175 27.9633C9.0124 28.0548 8.99167 28.1532 8.99075 28.2528C8.98984 28.3524 9.00877 28.4511 9.04644 28.5433C9.08411 28.6355 9.13976 28.7193 9.21014 28.7897C9.28053 28.8602 9.36424 28.9159 9.4564 28.9537C9.54855 28.9914 9.6473 29.0104 9.74688 29.0096C9.84647 29.0088 9.94489 28.9882 10.0364 28.9489C10.1279 28.9096 10.2107 28.8525 10.2799 28.7809L12.5699 26.4909C13.6215 27.31 14.917 27.7535 16.2499 27.7509C17.0899 27.7509 17.8899 27.5779 18.6159 27.2659C18.2097 26.4005 17.9993 25.456 17.9999 24.4999ZM19.8369 23.4719C20.0983 23.4073 20.3438 23.2906 20.559 23.1287C20.7741 22.9669 20.9543 22.7633 21.0889 22.5301C21.2234 22.297 21.3095 22.0391 21.342 21.7718C21.3745 21.5046 21.3527 21.2335 21.2779 20.9749L21.0799 20.2889C21.5206 19.9053 22.0217 19.5971 22.5629 19.3769L23.0619 19.9009C23.2488 20.0975 23.4736 20.2539 23.7228 20.3609C23.972 20.4678 24.2403 20.5229 24.5114 20.5229C24.7826 20.5229 25.0509 20.4678 25.3001 20.3609C25.5493 20.2539 25.7741 20.0975 25.9609 19.9009L26.4539 19.3829C26.9962 19.6061 27.4977 19.9176 27.9379 20.3049L27.7519 20.9349C27.6751 21.1951 27.652 21.4681 27.684 21.7374C27.716 22.0067 27.8024 22.2668 27.938 22.5016C28.0737 22.7365 28.2557 22.9413 28.4729 23.1037C28.6902 23.266 28.9382 23.3825 29.2019 23.4459L29.7409 23.5759C29.8391 24.1744 29.8411 24.7848 29.7469 25.3839L29.1629 25.5279C28.9018 25.5927 28.6565 25.7095 28.4415 25.8713C28.2266 26.0331 28.0465 26.2366 27.9121 26.4697C27.7776 26.7027 27.6916 26.9605 27.6591 27.2275C27.6266 27.4946 27.6483 27.7655 27.7229 28.0239L27.9199 28.7099C27.4793 29.094 26.9782 29.4025 26.4369 29.6229L25.9389 29.0979C25.7521 28.9013 25.5272 28.7447 25.2779 28.6376C25.0287 28.5306 24.7602 28.4754 24.4889 28.4754C24.2177 28.4754 23.9492 28.5306 23.7 28.6376C23.4507 28.7447 23.2258 28.9013 23.0389 29.0979L22.5459 29.6159C22.0037 29.3931 21.5023 29.0819 21.0619 28.6949L21.2489 28.0639C21.3256 27.8039 21.3486 27.531 21.3165 27.2617C21.2845 26.9925 21.198 26.7326 21.0624 26.4979C20.9268 26.2631 20.7448 26.0584 20.5276 25.8961C20.3104 25.7338 20.0625 25.6174 19.7989 25.5539L19.2589 25.4239C19.1608 24.8254 19.1587 24.2151 19.2529 23.6159L19.8369 23.4719ZM23.0499 24.4999C23.0499 25.3279 23.6999 25.9999 24.4999 25.9999C25.2999 25.9999 25.9499 25.3279 25.9499 24.4999C25.9499 23.6709 25.2999 22.9999 24.4999 22.9999C23.6999 22.9999 23.0499 23.6709 23.0499 24.4999Z" fill="#F50A75"/>
<circle cx="19.5" cy="19.5" r="19.5" fill="#F50A75" fill-opacity="0.12"/>
</svg>
