<svg width="18" height="18" viewBox="0 0 18 18" fill="none" xmlns="http://www.w3.org/2000/svg">
<mask id="mask0_510_8579" style="mask-type:alpha" maskUnits="userSpaceOnUse" x="0" y="0" width="18" height="18">
<rect width="18" height="18" fill="#D9D9D9"/>
</mask>
<g mask="url(#mask0_510_8579)">
<path d="M8.99998 8.76948C8.27812 8.76948 7.66016 8.51245 7.14609 7.9984C6.63203 7.48434 6.375 6.86638 6.375 6.14451C6.375 5.42264 6.63203 4.80468 7.14609 4.29063C7.66016 3.77656 8.27812 3.51953 8.99998 3.51953C9.72184 3.51953 10.3398 3.77656 10.8539 4.29063C11.3679 4.80468 11.625 5.42264 11.625 6.14451C11.625 6.86638 11.3679 7.48434 10.8539 7.9984C10.3398 8.51245 9.72184 8.76948 8.99998 8.76948ZM3.375 13.3416V12.8137C3.375 12.4464 3.47476 12.1063 3.67429 11.7933C3.8738 11.4803 4.14038 11.2397 4.47403 11.0714C5.21538 10.708 5.96322 10.4354 6.71754 10.2537C7.47187 10.0719 8.23268 9.98106 8.99998 9.98106C9.76728 9.98106 10.5281 10.0719 11.2824 10.2537C12.0367 10.4354 12.7846 10.708 13.5259 11.0714C13.8596 11.2397 14.1262 11.4803 14.3257 11.7933C14.5252 12.1063 14.625 12.4464 14.625 12.8137V13.3416C14.625 13.6579 14.5141 13.9269 14.2925 14.1486C14.0709 14.3702 13.8019 14.481 13.4856 14.481H4.5144C4.19806 14.481 3.92908 14.3702 3.70746 14.1486C3.48582 13.9269 3.375 13.6579 3.375 13.3416ZM4.49998 13.356H13.5V12.8137C13.5 12.6618 13.456 12.5212 13.368 12.3918C13.28 12.2625 13.1606 12.157 13.0096 12.0753C12.3634 11.757 11.7046 11.5159 11.033 11.3519C10.3614 11.188 9.68376 11.106 8.99998 11.106C8.31621 11.106 7.63853 11.188 6.96696 11.3519C6.29538 11.5159 5.63652 11.757 4.99037 12.0753C4.83941 12.157 4.71994 12.2625 4.63196 12.3918C4.54397 12.5212 4.49998 12.6618 4.49998 12.8137V13.356ZM8.99998 7.64451C9.41248 7.64451 9.76561 7.49764 10.0594 7.20389C10.3531 6.91014 10.5 6.55701 10.5 6.14451C10.5 5.73201 10.3531 5.37889 10.0594 5.08514C9.76561 4.79139 9.41248 4.64451 8.99998 4.64451C8.58748 4.64451 8.23436 4.79139 7.94061 5.08514C7.64686 5.37889 7.49998 5.73201 7.49998 6.14451C7.49998 6.55701 7.64686 6.91014 7.94061 7.20389C8.23436 7.49764 8.58748 7.64451 8.99998 7.64451Z" fill="#0B174F"/>
</g>
</svg>
