<svg width="39" height="39" viewBox="0 0 39 39" fill="none" xmlns="http://www.w3.org/2000/svg">
<circle cx="19.5" cy="19.5" r="19.5" fill="#39409A" fill-opacity="0.12"/>
<path d="M18.9999 8C21.3134 7.99997 23.5554 8.80213 25.3438 10.2698C27.1323 11.7375 28.3565 13.7799 28.8078 16.049C29.2592 18.3181 28.9099 20.6735 27.8193 22.7139C26.7287 24.7542 24.9644 26.3534 22.827 27.2388C20.6895 28.1241 18.3112 28.241 16.0973 27.5694C13.8833 26.8979 11.9707 25.4794 10.6854 23.5558C9.40002 21.6322 8.82141 19.3223 9.04816 17.0199C9.2749 14.7175 10.293 12.5649 11.9289 10.929L14.7569 13.757C13.7752 14.7385 13.1643 16.0299 13.0281 17.4114C12.8919 18.7928 13.2389 20.1787 14.01 21.333C14.7811 22.4872 15.9286 23.3384 17.2569 23.7415C18.5852 24.1446 20.0122 24.0746 21.2947 23.5435C22.5772 23.0124 23.6359 22.0531 24.2904 20.8289C24.9449 19.6048 25.1547 18.1916 24.884 16.8301C24.6133 15.4686 23.879 14.2431 22.8061 13.3624C21.7331 12.4816 20.388 12.0002 18.9999 12V8Z" fill="#39409A"/>
<mask id="mask0_2021_9096" style="mask-type:luminance" maskUnits="userSpaceOnUse" x="8" y="7" width="22" height="22">
<path d="M8 7H30V29H8V7Z" fill="white"/>
<path d="M18.9999 8C21.3134 7.99997 23.5554 8.80213 25.3438 10.2698C27.1323 11.7375 28.3565 13.7799 28.8078 16.049C29.2592 18.3181 28.9099 20.6735 27.8193 22.7139C26.7287 24.7542 24.9644 26.3534 22.827 27.2388C20.6895 28.1241 18.3112 28.241 16.0973 27.5694C13.8833 26.8979 11.9707 25.4794 10.6854 23.5558C9.40002 21.6322 8.82141 19.3223 9.04816 17.0199C9.2749 14.7175 10.293 12.5649 11.9289 10.929L14.7569 13.757C13.7752 14.7385 13.1643 16.0299 13.0281 17.4114C12.8919 18.7928 13.2389 20.1787 14.01 21.333C14.7811 22.4872 15.9286 23.3384 17.2569 23.7415C18.5852 24.1446 20.0122 24.0746 21.2947 23.5435C22.5772 23.0124 23.6359 22.0531 24.2904 20.8289C24.9449 19.6048 25.1547 18.1916 24.884 16.8301C24.6133 15.4686 23.879 14.2431 22.8061 13.3624C21.7331 12.4816 20.388 12.0002 18.9999 12V8Z" fill="black"/>
</mask>
<g mask="url(#mask0_2021_9096)">
<path d="M18.9999 8V7H17.9999V8H18.9999ZM11.9299 10.929L12.6369 10.222L11.9299 9.515L11.2229 10.222L11.9299 10.929ZM14.7579 13.757L15.4649 14.464L16.1729 13.757L15.4649 13.05L14.7579 13.757ZM18.9999 12H17.9999V13H18.9999V12ZM18.9999 9C21.0823 8.99992 23.1002 9.72193 24.7099 11.043L25.9779 9.497C24.0108 7.88256 21.5447 7.00011 18.9999 7V9ZM24.7099 11.043C26.3192 12.3639 27.4208 14.202 27.8269 16.244L29.7889 15.854C29.2925 13.3581 27.945 11.1115 25.9779 9.497L24.7099 11.043ZM27.8269 16.244C28.2332 18.2864 27.9187 20.4065 26.9369 22.243L28.7009 23.185C29.9006 20.9408 30.2851 18.35 29.7889 15.854L27.8269 16.244ZM26.9369 22.243C25.9553 24.0792 24.3675 25.5182 22.4439 26.315L23.2089 28.163C25.5603 27.189 27.5013 25.4297 28.7009 23.185L26.9369 22.243ZM22.4439 26.315C20.5201 27.1117 18.3795 27.2167 16.3869 26.612L15.8069 28.526C18.2419 29.2648 20.8578 29.1365 23.2089 28.163L22.4439 26.315ZM16.3869 26.612C14.3947 26.0075 12.6736 24.731 11.5169 23L9.8539 24.111C11.2678 26.227 13.3716 27.7873 15.8069 28.526L16.3869 26.612ZM11.5169 23C10.36 21.2689 9.83904 19.1901 10.0429 17.118L8.0529 16.922C7.80307 19.4547 8.43921 21.9957 9.8529 24.112L11.5169 23ZM10.0429 17.118C10.247 15.0457 11.1634 13.1083 12.6359 11.636L11.2229 10.222C9.42332 12.0215 8.30238 14.3893 8.0529 16.922L10.0429 17.118ZM11.2219 11.636L14.0499 14.464L15.4639 13.05L12.6369 10.222L11.2219 11.636ZM14.0499 13.05C12.9049 14.1953 12.1934 15.7023 12.0349 17.314L14.0239 17.51C14.1371 16.3586 14.646 15.2822 15.4639 14.464L14.0499 13.05ZM12.0349 17.314C11.8762 18.9257 12.2802 20.5425 13.1799 21.889L14.8429 20.778C14.2001 19.8162 13.9106 18.6613 14.0239 17.51L12.0349 17.314ZM13.1799 21.889C14.0795 23.2357 15.4192 24.2287 16.9689 24.699L17.5479 22.785C16.4413 22.449 15.4853 21.7397 14.8429 20.778L13.1799 21.889ZM16.9689 24.699C18.5185 25.1687 20.182 25.0868 21.6779 24.467L20.9139 22.619C19.8455 23.0617 18.6547 23.1204 17.5479 22.785L16.9689 24.699ZM21.6779 24.467C23.1745 23.8475 24.41 22.7283 25.1739 21.3L23.4109 20.357C22.8653 21.3772 21.9829 22.1766 20.9139 22.619L21.6779 24.467ZM25.1739 21.3C25.9374 19.8716 26.182 18.2226 25.8659 16.634L23.9039 17.024C24.1298 18.1587 23.9562 19.3366 23.4109 20.357L25.1739 21.3ZM25.8659 16.634C25.5493 15.046 24.692 13.6168 23.4399 12.59L22.1709 14.136C23.0652 14.8699 23.6773 15.8913 23.9029 17.026L25.8659 16.634ZM23.4399 12.59C22.1884 11.5624 20.6193 11.0005 18.9999 11V13C20.1567 13 21.2777 13.4011 22.1719 14.135L23.4399 12.59ZM19.9999 12V8H17.9999V12H19.9999Z" fill="#39409A"/>
</g>
<path d="M19 18L12 11" stroke="#39409A" stroke-width="2" stroke-linecap="round"/>
</svg>
