<svg width="17" height="18" viewBox="0 0 17 18" fill="none" xmlns="http://www.w3.org/2000/svg">
<mask id="path-1-inside-1_444_7625" fill="white">
<path d="M15.9856 17.1926L9.72359 10.9306C9.22359 11.3566 8.64859 11.6863 7.99859 11.9196C7.34859 12.153 6.69526 12.2696 6.03859 12.2696C4.43726 12.2696 3.08193 11.7153 1.97259 10.6066C0.863261 9.49795 0.308594 8.14295 0.308594 6.54162C0.308594 4.94029 0.862593 3.58462 1.97059 2.47462C3.07859 1.36462 4.43326 0.808953 6.03459 0.80762C7.63593 0.806286 8.99193 1.36095 10.1026 2.47162C11.2133 3.58229 11.7686 4.93795 11.7686 6.53862C11.7686 7.23329 11.6456 7.90562 11.3996 8.55562C11.1536 9.20562 10.8303 9.76162 10.4296 10.2236L16.6916 16.4846L15.9856 17.1926ZM6.03959 11.2686C7.36626 11.2686 8.48626 10.812 9.39959 9.89862C10.3129 8.98529 10.7696 7.86495 10.7696 6.53762C10.7696 5.21029 10.3129 4.09029 9.39959 3.17762C8.48626 2.26495 7.36626 1.80829 6.03959 1.80762C4.71293 1.80695 3.59259 2.26362 2.67859 3.17762C1.76459 4.09162 1.30793 5.21162 1.30859 6.53762C1.30926 7.86362 1.76593 8.98362 2.67859 9.89762C3.59126 10.8116 4.71126 11.2683 6.03859 11.2676"/>
</mask>
<path d="M15.9856 17.1926L9.72359 10.9306C9.22359 11.3566 8.64859 11.6863 7.99859 11.9196C7.34859 12.153 6.69526 12.2696 6.03859 12.2696C4.43726 12.2696 3.08193 11.7153 1.97259 10.6066C0.863261 9.49795 0.308594 8.14295 0.308594 6.54162C0.308594 4.94029 0.862593 3.58462 1.97059 2.47462C3.07859 1.36462 4.43326 0.808953 6.03459 0.80762C7.63593 0.806286 8.99193 1.36095 10.1026 2.47162C11.2133 3.58229 11.7686 4.93795 11.7686 6.53862C11.7686 7.23329 11.6456 7.90562 11.3996 8.55562C11.1536 9.20562 10.8303 9.76162 10.4296 10.2236L16.6916 16.4846L15.9856 17.1926ZM6.03959 11.2686C7.36626 11.2686 8.48626 10.812 9.39959 9.89862C10.3129 8.98529 10.7696 7.86495 10.7696 6.53762C10.7696 5.21029 10.3129 4.09029 9.39959 3.17762C8.48626 2.26495 7.36626 1.80829 6.03959 1.80762C4.71293 1.80695 3.59259 2.26362 2.67859 3.17762C1.76459 4.09162 1.30793 5.21162 1.30859 6.53762C1.30926 7.86362 1.76593 8.98362 2.67859 9.89762C3.59126 10.8116 4.71126 11.2683 6.03859 11.2676" fill="white"/>
<path d="M15.9856 17.1926L14.9249 18.2533L15.9871 19.3154L17.0478 18.2518L15.9856 17.1926ZM9.72359 10.9306L10.7843 9.86996L9.80497 8.89068L8.7508 9.78884L9.72359 10.9306ZM6.03859 12.2696V10.7696V12.2696ZM10.4296 10.2236L9.29638 9.24085L8.38093 10.2964L9.36902 11.2844L10.4296 10.2236ZM16.6916 16.4846L17.7538 17.5438L18.8115 16.483L17.7522 15.4239L16.6916 16.4846ZM17.0463 16.132L10.7843 9.86996L8.66293 11.9913L14.9249 18.2533L17.0463 16.132ZM8.7508 9.78884C8.39555 10.0915 7.9803 10.3325 7.4918 10.5078L8.50539 13.3314C9.31689 13.0401 10.0516 12.6217 10.6964 12.0724L8.7508 9.78884ZM7.4918 10.5078C6.9959 10.6858 6.51372 10.7696 6.03859 10.7696V13.7696C6.8768 13.7696 7.70128 13.6201 8.50539 13.3314L7.4918 10.5078ZM6.03859 10.7696C4.82556 10.7696 3.85443 10.3666 3.03294 9.54564L0.912252 11.6676C2.30942 13.0639 4.04896 13.7696 6.03859 13.7696V10.7696ZM3.03294 9.54564C2.21167 8.72487 1.80859 7.75435 1.80859 6.54162H-1.19141C-1.19141 8.53155 -0.485146 10.271 0.912252 11.6676L3.03294 9.54564ZM1.80859 6.54162C1.80859 5.32828 2.21147 4.35654 3.03221 3.53432L0.908977 1.41492C-0.486288 2.8127 -1.19141 4.55229 -1.19141 6.54162H1.80859ZM3.03221 3.53432C3.85258 2.71247 4.82299 2.30863 6.03584 2.30762L6.03335 -0.69238C4.04353 -0.690723 2.30461 0.0167648 0.908977 1.41492L3.03221 3.53432ZM6.03584 2.30762C7.24763 2.30661 8.21898 2.70932 9.04193 3.53228L11.1633 1.41096C9.76488 0.0125841 8.02423 -0.694038 6.03335 -0.69238L6.03584 2.30762ZM9.04193 3.53228C9.86534 4.35568 10.2686 5.32727 10.2686 6.53862H13.2686C13.2686 4.54864 12.5612 2.80889 11.1633 1.41096L9.04193 3.53228ZM10.2686 6.53862C10.2686 7.0518 10.1785 7.54425 9.9967 8.02468L12.8025 9.08656C13.1127 8.26699 13.2686 7.41477 13.2686 6.53862H10.2686ZM9.9967 8.02468C9.80483 8.53167 9.56657 8.9293 9.29638 9.24085L11.5628 11.2064C12.0939 10.5939 12.5024 9.87957 12.8025 9.08656L9.9967 8.02468ZM9.36902 11.2844L15.631 17.5454L17.7522 15.4239L11.4902 9.16288L9.36902 11.2844ZM15.6294 15.4255L14.9234 16.1335L17.0478 18.2518L17.7538 17.5438L15.6294 15.4255ZM6.03959 12.7686C7.75201 12.7686 9.25719 12.1623 10.4603 10.9593L8.33893 8.83796C7.71533 9.46157 6.98051 9.76862 6.03959 9.76862V12.7686ZM10.4603 10.9593C11.6635 9.75606 12.2696 8.25048 12.2696 6.53762H9.26959C9.26959 7.47943 8.96238 8.21451 8.33893 8.83796L10.4603 10.9593ZM12.2696 6.53762C12.2696 4.82474 11.6634 3.31927 10.4599 2.11657L8.33932 4.23867C8.96241 4.8613 9.26959 5.59583 9.26959 6.53762H12.2696ZM10.4599 2.11657C9.25692 0.9145 7.75217 0.30848 6.04035 0.30762L6.03884 3.30762C6.98035 3.30809 7.7156 3.61541 8.33932 4.23867L10.4599 2.11657ZM6.04035 0.30762C4.32735 0.306759 2.82162 0.913268 1.61793 2.11696L3.73925 4.23828C4.36356 3.61397 5.09851 3.30715 6.03884 3.30762L6.04035 0.30762ZM1.61793 2.11696C0.4144 3.32049 -0.192267 4.82581 -0.191406 6.53837L2.80859 6.53686C2.80812 5.59743 3.11479 4.86275 3.73925 4.23828L1.61793 2.11696ZM-0.191406 6.53837C-0.190546 8.24974 0.415603 9.75419 1.61716 10.9575L3.74003 8.83773C3.11625 8.21305 2.80907 7.4775 2.80859 6.53686L-0.191406 6.53837ZM1.61716 10.9575C2.81997 12.1621 4.32587 12.7685 6.03935 12.7676L6.03784 9.76762C5.09665 9.76809 4.36255 9.46117 3.74003 8.83773L1.61716 10.9575Z" fill="white" mask="url(#path-1-inside-1_444_7625)"/>
</svg>
