<svg width="18" height="18" viewBox="0 0 18 18" fill="none" xmlns="http://www.w3.org/2000/svg">
<mask id="mask0_510_8584" style="mask-type:alpha" maskUnits="userSpaceOnUse" x="0" y="0" width="18" height="18">
<rect width="18" height="18" fill="#D9D9D9"/>
</mask>
<g mask="url(#mask0_510_8584)">
<path d="M7.86014 16.125C7.69186 16.125 7.54619 16.0685 7.42311 15.9555C7.30004 15.8425 7.226 15.7019 7.201 15.5336L6.98322 13.8404C6.78226 13.773 6.57625 13.6788 6.36518 13.5577C6.15412 13.4365 5.96541 13.3067 5.79906 13.1682L4.23273 13.8288C4.07215 13.899 3.91278 13.9072 3.7546 13.8533C3.59643 13.7995 3.47215 13.6985 3.38176 13.5504L2.25391 11.586C2.16832 11.438 2.14188 11.2798 2.17458 11.1115C2.20726 10.9433 2.2914 10.8077 2.42697 10.7048L3.78275 9.67931C3.76543 9.56778 3.75317 9.45576 3.74596 9.34326C3.73875 9.23076 3.73514 9.11874 3.73514 9.0072C3.73514 8.90046 3.73875 8.79204 3.74596 8.68194C3.75317 8.57184 3.76543 8.45141 3.78275 8.32065L2.42697 7.29516C2.2914 7.19228 2.20606 7.05671 2.17098 6.88843C2.13588 6.72017 2.16352 6.562 2.25391 6.41393L3.38176 4.46396C3.47215 4.31589 3.59523 4.21493 3.751 4.16108C3.90676 4.10723 4.06493 4.1154 4.22551 4.1856L5.79185 4.83896C5.97262 4.69569 6.16565 4.56468 6.37094 4.44593C6.57624 4.32716 6.77793 4.23173 6.976 4.15961L7.201 2.46636C7.226 2.29808 7.30004 2.15746 7.42311 2.04448C7.54619 1.93149 7.69186 1.875 7.86014 1.875H10.1317C10.3 1.875 10.4469 1.93149 10.5723 2.04448C10.6978 2.15746 10.7731 2.29808 10.7981 2.46636L11.0159 4.16683C11.2409 4.24856 11.4445 4.34399 11.6267 4.45313C11.8089 4.56226 11.9928 4.69088 12.1784 4.83896L13.7736 4.1856C13.9341 4.1154 14.0923 4.10603 14.2481 4.15747C14.4039 4.20891 14.5269 4.30867 14.6173 4.45674L15.7452 6.41393C15.8356 6.562 15.8632 6.72017 15.8281 6.88843C15.793 7.05671 15.7077 7.19228 15.5721 7.29516L14.1875 8.34227C14.2144 8.46343 14.2291 8.57666 14.2315 8.68194C14.2339 8.78723 14.2351 8.89324 14.2351 8.99998C14.2351 9.10191 14.2327 9.20551 14.2279 9.3108C14.2231 9.41609 14.2058 9.53653 14.1759 9.67211L15.5461 10.7048C15.6817 10.8077 15.7671 10.9433 15.8022 11.1115C15.8373 11.2798 15.8096 11.438 15.7192 11.586L14.5914 13.5389C14.501 13.687 14.3748 13.7886 14.2128 13.8439C14.0507 13.8992 13.8894 13.8918 13.7289 13.8216L12.1784 13.161C11.9928 13.3091 11.8034 13.4401 11.6101 13.554C11.4168 13.668 11.2187 13.761 11.0159 13.8331L10.7981 15.5336C10.7731 15.7019 10.6978 15.8425 10.5723 15.9555C10.4469 16.0685 10.3 16.125 10.1317 16.125H7.86014ZM8.24954 15H9.72357L9.99329 12.9908C10.376 12.8908 10.7257 12.7488 11.0426 12.5646C11.3594 12.3805 11.6649 12.1437 11.9592 11.8543L13.8226 12.6375L14.5611 11.3625L12.9342 10.1365C12.9967 9.94229 13.0392 9.75191 13.0618 9.56537C13.0844 9.37883 13.0957 9.19037 13.0957 8.99998C13.0957 8.80479 13.0844 8.61633 13.0618 8.43459C13.0392 8.25287 12.9967 8.06729 12.9342 7.87787L14.5755 6.63748L13.837 5.36248L11.9519 6.1572C11.701 5.88893 11.4003 5.65191 11.0498 5.44614C10.6993 5.24037 10.3447 5.09469 9.98607 5.00912L9.74954 2.99998H8.26107L8.01301 5.0019C7.63031 5.09229 7.27694 5.23075 6.9529 5.41729C6.62886 5.60383 6.31973 5.84421 6.02551 6.13845L4.16204 5.36248L3.42357 6.63748L5.04329 7.8447C4.98079 8.02258 4.93704 8.20767 4.91204 8.39998C4.88704 8.59229 4.87454 8.7947 4.87454 9.0072C4.87454 9.20239 4.88704 9.39373 4.91204 9.58123C4.93704 9.76873 4.97838 9.95383 5.03607 10.1365L3.42357 11.3625L4.16204 12.6375L6.01829 11.85C6.3029 12.1423 6.60723 12.3817 6.93126 12.5683C7.2553 12.7548 7.61348 12.8981 8.00579 12.9981L8.24954 15ZM9.00818 11.25C9.63222 11.25 10.1632 11.031 10.6012 10.593C11.0392 10.155 11.2582 9.62401 11.2582 8.99998C11.2582 8.37596 11.0392 7.84495 10.6012 7.40696C10.1632 6.96899 9.63222 6.75 9.00818 6.75C8.37647 6.75 7.84355 6.96899 7.40941 7.40696C6.97528 7.84495 6.75822 8.37596 6.75822 8.99998C6.75822 9.62401 6.97528 10.155 7.40941 10.593C7.84355 11.031 8.37647 11.25 9.00818 11.25Z" fill="#0B174F"/>
</g>
</svg>
