<svg width="18" height="18" viewBox="0 0 18 18" fill="none" xmlns="http://www.w3.org/2000/svg">
<mask id="mask0_510_8589" style="mask-type:alpha" maskUnits="userSpaceOnUse" x="0" y="0" width="18" height="18">
<rect width="18" height="18" fill="#D9D9D9"/>
</mask>
<g mask="url(#mask0_510_8589)">
<path d="M3.98077 15.375C3.60192 15.375 3.28125 15.2437 3.01875 14.9812C2.75625 14.7187 2.625 14.398 2.625 14.0192V3.98078C2.625 3.60193 2.75625 3.28125 3.01875 3.01875C3.28125 2.75625 3.60192 2.625 3.98077 2.625H8.4447C8.60431 2.625 8.73796 2.67885 8.84565 2.78655C8.95335 2.89424 9.0072 3.02789 9.0072 3.1875C9.0072 3.34711 8.95335 3.48076 8.84565 3.58845C8.73796 3.69614 8.60431 3.74998 8.4447 3.74998H3.98077C3.92307 3.74998 3.87018 3.77402 3.82209 3.82209C3.77402 3.87018 3.74998 3.92308 3.74998 3.98078V14.0192C3.74998 14.0769 3.77402 14.1298 3.82209 14.1779C3.87018 14.2259 3.92307 14.25 3.98077 14.25H8.4447C8.60431 14.25 8.73796 14.3038 8.84565 14.4115C8.95335 14.5192 9.0072 14.6529 9.0072 14.8125C9.0072 14.9721 8.95335 15.1057 8.84565 15.2134C8.73796 15.3211 8.60431 15.375 8.4447 15.375H3.98077ZM13.213 9.56246H7.38459C7.22498 9.56246 7.09133 9.50862 6.98364 9.40093C6.87594 9.29324 6.82209 9.15959 6.82209 8.99998C6.82209 8.84037 6.87594 8.70672 6.98364 8.59903C7.09133 8.49134 7.22498 8.4375 7.38459 8.4375H13.213L11.7707 6.99519C11.6668 6.89134 11.6137 6.76466 11.6113 6.61515C11.6089 6.46564 11.662 6.33271 11.7707 6.21636C11.8793 6.10002 12.0111 6.03993 12.1659 6.03608C12.3207 6.03223 12.4562 6.08848 12.5726 6.20483L14.8932 8.52548C15.0288 8.66105 15.0966 8.81922 15.0966 8.99998C15.0966 9.18074 15.0288 9.33891 14.8932 9.47449L12.5726 11.7951C12.461 11.9067 12.3286 11.9617 12.1752 11.9603C12.0219 11.9588 11.887 11.8999 11.7707 11.7836C11.662 11.6673 11.6096 11.5336 11.6135 11.3827C11.6173 11.2317 11.6736 11.1019 11.7822 10.9932L13.213 9.56246Z" fill="#0B174F"/>
</g>
</svg>
