<svg width="44" height="44" viewBox="0 0 44 44" fill="none" xmlns="http://www.w3.org/2000/svg">
<circle cx="21.637" cy="21.5276" r="20.5276" fill="white" stroke="url(#paint0_linear_279_2308)" stroke-width="2"/>
<mask id="path-2-inside-1_279_2308" fill="white">
<path fill-rule="evenodd" clip-rule="evenodd" d="M16.1063 14.8026C16.3944 14.5142 16.7852 14.3519 17.1929 14.3516H22.9203C23.328 14.3519 23.7188 14.5142 24.0069 14.8026L27.5067 18.3024C27.7952 18.5905 27.9574 18.9813 27.9578 19.389V27.1656C27.9578 27.5735 27.7958 27.9646 27.5074 28.2529C27.219 28.5413 26.8279 28.7033 26.4201 28.7033H17.1939C16.7861 28.7033 16.395 28.5413 16.1066 28.2529C15.8183 27.9646 15.6562 27.5735 15.6562 27.1656V15.8893C15.6562 15.4813 15.8172 15.0897 16.1063 14.8026ZM20.8957 18.9923C20.978 19.0509 21.0479 19.1252 21.1015 19.2109C21.1551 19.2966 21.1912 19.3921 21.2079 19.4918C21.2246 19.5915 21.2214 19.6934 21.1986 19.7919C21.1758 19.8904 21.1338 19.9834 21.0751 20.0656L19.643 22.0708C19.578 22.1615 19.4941 22.237 19.3971 22.292C19.3 22.3471 19.1921 22.3803 19.081 22.3895C18.9698 22.3987 18.8579 22.3835 18.7531 22.3451C18.6484 22.3067 18.5532 22.246 18.4743 22.1671L17.6153 21.3081C17.4795 21.1623 17.4055 20.9695 17.409 20.7704C17.4125 20.5712 17.4932 20.3811 17.6341 20.2403C17.775 20.0994 17.965 20.0187 18.1642 20.0152C18.3634 20.0117 18.5562 20.0856 18.7019 20.2214L18.9192 20.4377L19.8234 19.1727C19.9418 19.0068 20.1213 18.8946 20.3224 18.861C20.5235 18.8273 20.7297 18.8739 20.8957 18.9923ZM21.8695 20.8857C21.8695 20.6818 21.9505 20.4862 22.0947 20.3421C22.2389 20.1979 22.4345 20.1169 22.6384 20.1169H25.2012C25.4051 20.1169 25.6007 20.1979 25.7449 20.3421C25.889 20.4862 25.97 20.6818 25.97 20.8857C25.97 21.0896 25.889 21.2852 25.7449 21.4294C25.6007 21.5736 25.4051 21.6546 25.2012 21.6546H22.6384C22.4345 21.6546 22.2389 21.5736 22.0947 21.4294C21.9505 21.2852 21.8695 21.0896 21.8695 20.8857ZM21.8695 24.9544C21.8695 24.7505 21.9505 24.555 22.0947 24.4108C22.2389 24.2666 22.4345 24.1856 22.6384 24.1856H25.2012C25.4051 24.1856 25.6007 24.2666 25.7449 24.4108C25.889 24.555 25.97 24.7505 25.97 24.9544C25.97 25.1583 25.889 25.3539 25.7449 25.4981C25.6007 25.6423 25.4051 25.7233 25.2012 25.7233H22.6384C22.4345 25.7233 22.2389 25.6423 22.0947 25.4981C21.9505 25.3539 21.8695 25.1583 21.8695 24.9544ZM21.0751 24.1979C21.1366 24.1159 21.1811 24.0225 21.206 23.9231C21.2308 23.8237 21.2356 23.7203 21.22 23.6191C21.2043 23.5178 21.1686 23.4207 21.1149 23.3334C21.0612 23.2461 20.9906 23.1705 20.9072 23.1109C20.8238 23.0513 20.7294 23.009 20.6295 22.9864C20.5295 22.9639 20.426 22.9615 20.3252 22.9795C20.2243 22.9975 20.128 23.0355 20.042 23.0912C19.956 23.1469 19.882 23.2193 19.8244 23.304L18.9192 24.57L18.7019 24.3527C18.5562 24.2169 18.3634 24.1429 18.1642 24.1465C17.965 24.15 17.775 24.2307 17.6341 24.3715C17.4932 24.5124 17.4125 24.7024 17.409 24.9016C17.4055 25.1008 17.4795 25.2936 17.6153 25.4393L18.4743 26.2984C18.5532 26.3772 18.6484 26.438 18.7531 26.4764C18.8579 26.5148 18.9698 26.5299 19.081 26.5208C19.1921 26.5116 19.3 26.4783 19.3971 26.4233C19.4941 26.3682 19.578 26.2927 19.643 26.202L21.0751 24.1979Z"/>
</mask>
<path fill-rule="evenodd" clip-rule="evenodd" d="M16.1063 14.8026C16.3944 14.5142 16.7852 14.3519 17.1929 14.3516H22.9203C23.328 14.3519 23.7188 14.5142 24.0069 14.8026L27.5067 18.3024C27.7952 18.5905 27.9574 18.9813 27.9578 19.389V27.1656C27.9578 27.5735 27.7958 27.9646 27.5074 28.2529C27.219 28.5413 26.8279 28.7033 26.4201 28.7033H17.1939C16.7861 28.7033 16.395 28.5413 16.1066 28.2529C15.8183 27.9646 15.6562 27.5735 15.6562 27.1656V15.8893C15.6562 15.4813 15.8172 15.0897 16.1063 14.8026ZM20.8957 18.9923C20.978 19.0509 21.0479 19.1252 21.1015 19.2109C21.1551 19.2966 21.1912 19.3921 21.2079 19.4918C21.2246 19.5915 21.2214 19.6934 21.1986 19.7919C21.1758 19.8904 21.1338 19.9834 21.0751 20.0656L19.643 22.0708C19.578 22.1615 19.4941 22.237 19.3971 22.292C19.3 22.3471 19.1921 22.3803 19.081 22.3895C18.9698 22.3987 18.8579 22.3835 18.7531 22.3451C18.6484 22.3067 18.5532 22.246 18.4743 22.1671L17.6153 21.3081C17.4795 21.1623 17.4055 20.9695 17.409 20.7704C17.4125 20.5712 17.4932 20.3811 17.6341 20.2403C17.775 20.0994 17.965 20.0187 18.1642 20.0152C18.3634 20.0117 18.5562 20.0856 18.7019 20.2214L18.9192 20.4377L19.8234 19.1727C19.9418 19.0068 20.1213 18.8946 20.3224 18.861C20.5235 18.8273 20.7297 18.8739 20.8957 18.9923ZM21.8695 20.8857C21.8695 20.6818 21.9505 20.4862 22.0947 20.3421C22.2389 20.1979 22.4345 20.1169 22.6384 20.1169H25.2012C25.4051 20.1169 25.6007 20.1979 25.7449 20.3421C25.889 20.4862 25.97 20.6818 25.97 20.8857C25.97 21.0896 25.889 21.2852 25.7449 21.4294C25.6007 21.5736 25.4051 21.6546 25.2012 21.6546H22.6384C22.4345 21.6546 22.2389 21.5736 22.0947 21.4294C21.9505 21.2852 21.8695 21.0896 21.8695 20.8857ZM21.8695 24.9544C21.8695 24.7505 21.9505 24.555 22.0947 24.4108C22.2389 24.2666 22.4345 24.1856 22.6384 24.1856H25.2012C25.4051 24.1856 25.6007 24.2666 25.7449 24.4108C25.889 24.555 25.97 24.7505 25.97 24.9544C25.97 25.1583 25.889 25.3539 25.7449 25.4981C25.6007 25.6423 25.4051 25.7233 25.2012 25.7233H22.6384C22.4345 25.7233 22.2389 25.6423 22.0947 25.4981C21.9505 25.3539 21.8695 25.1583 21.8695 24.9544ZM21.0751 24.1979C21.1366 24.1159 21.1811 24.0225 21.206 23.9231C21.2308 23.8237 21.2356 23.7203 21.22 23.6191C21.2043 23.5178 21.1686 23.4207 21.1149 23.3334C21.0612 23.2461 20.9906 23.1705 20.9072 23.1109C20.8238 23.0513 20.7294 23.009 20.6295 22.9864C20.5295 22.9639 20.426 22.9615 20.3252 22.9795C20.2243 22.9975 20.128 23.0355 20.042 23.0912C19.956 23.1469 19.882 23.2193 19.8244 23.304L18.9192 24.57L18.7019 24.3527C18.5562 24.2169 18.3634 24.1429 18.1642 24.1465C17.965 24.15 17.775 24.2307 17.6341 24.3715C17.4932 24.5124 17.4125 24.7024 17.409 24.9016C17.4055 25.1008 17.4795 25.2936 17.6153 25.4393L18.4743 26.2984C18.5532 26.3772 18.6484 26.438 18.7531 26.4764C18.8579 26.5148 18.9698 26.5299 19.081 26.5208C19.1921 26.5116 19.3 26.4783 19.3971 26.4233C19.4941 26.3682 19.578 26.2927 19.643 26.202L21.0751 24.1979Z" fill="#39409A"/>
<path d="M16.1063 14.8026L17.5155 16.2219L17.5214 16.216L16.1063 14.8026ZM17.1929 14.3516V12.3516L17.1912 12.3516L17.1929 14.3516ZM22.9203 14.3516L22.9221 12.3516H22.9203V14.3516ZM24.0069 14.8026L22.5918 16.216L22.5927 16.2168L24.0069 14.8026ZM27.5067 18.3024L26.0925 19.7166L26.0934 19.7175L27.5067 18.3024ZM27.9578 19.389H29.9578L29.9578 19.3873L27.9578 19.389ZM27.9578 27.1656H29.9578H27.9578ZM17.1939 28.7033V30.7033V28.7033ZM15.6562 27.1656H13.6562H15.6562ZM20.8957 18.9923L19.7344 20.6206L19.7353 20.6213L20.8957 18.9923ZM21.0751 20.0656L19.448 18.9026L19.4475 18.9032L21.0751 20.0656ZM19.643 22.0708L21.2693 23.2348L21.2705 23.2332L19.643 22.0708ZM18.7531 22.3451L18.0648 24.2229L18.7531 22.3451ZM18.4743 22.1671L17.0601 23.5813L17.0606 23.5819L18.4743 22.1671ZM17.6153 21.3081L16.152 22.6715L16.1761 22.6973L16.2011 22.7223L17.6153 21.3081ZM18.7019 20.2214L20.1128 18.8039L20.0894 18.7807L20.0653 18.7582L18.7019 20.2214ZM18.9192 20.4377L17.5084 21.8553L19.1772 23.5163L20.5463 21.6007L18.9192 20.4377ZM19.8234 19.1727L21.4505 20.3357L21.4514 20.3344L19.8234 19.1727ZM22.6384 20.1169V18.1169V20.1169ZM25.2012 20.1169V18.1169V20.1169ZM25.2012 21.6546V23.6546V21.6546ZM22.6384 21.6546V23.6546V21.6546ZM21.8695 24.9544H19.8695H21.8695ZM21.0751 24.1979L19.4754 22.9974L19.4614 23.0161L19.4478 23.0351L21.0751 24.1979ZM19.8244 23.304L21.4513 24.4672L21.465 24.4482L21.4781 24.4288L19.8244 23.304ZM18.9192 24.57L17.505 25.9842L19.1737 27.6529L20.5462 25.7332L18.9192 24.57ZM18.7019 24.3527L20.1161 22.9385L20.0912 22.9135L20.0653 22.8895L18.7019 24.3527ZM17.6153 25.4393L16.152 26.8028L16.1761 26.8286L16.2011 26.8535L17.6153 25.4393ZM18.4743 26.2984L17.0601 27.7126L17.0606 27.7131L18.4743 26.2984ZM19.643 26.202L21.2693 27.3661L21.2702 27.3648L19.643 26.202ZM17.5214 16.216C17.4348 16.3027 17.3172 16.3515 17.1947 16.3516L17.1912 12.3516C16.2532 12.3524 15.354 12.7257 14.6912 13.3893L17.5214 16.216ZM17.1929 16.3516H22.9203V12.3516H17.1929V16.3516ZM22.9185 16.3516C22.796 16.3515 22.6784 16.3027 22.5918 16.216L25.422 13.3893C24.7592 12.7257 23.86 12.3524 22.9221 12.3516L22.9185 16.3516ZM22.5927 16.2168L26.0925 19.7166L28.9209 16.8882L25.4211 13.3884L22.5927 16.2168ZM26.0934 19.7175C26.0066 19.6309 25.9579 19.5134 25.9578 19.3908L29.9578 19.3873C29.9569 18.4493 29.5837 17.5501 28.92 16.8873L26.0934 19.7175ZM25.9578 19.389V27.1656H29.9578V19.389H25.9578ZM25.9578 27.1656C25.9578 27.043 26.0065 26.9254 26.0932 26.8387L28.9216 29.6672C29.585 29.0037 29.9578 28.1039 29.9578 27.1656H25.9578ZM26.0932 26.8387C26.1799 26.752 26.2975 26.7033 26.4201 26.7033V30.7033C27.3583 30.7033 28.2581 30.3306 28.9216 29.6672L26.0932 26.8387ZM26.4201 26.7033H17.1939V30.7033H26.4201V26.7033ZM17.1939 26.7033C17.3166 26.7033 17.4341 26.752 17.5208 26.8387L14.6924 29.6672C15.3559 30.3306 16.2557 30.7033 17.1939 30.7033L17.1939 26.7033ZM17.5208 26.8387C17.6075 26.9254 17.6562 27.043 17.6562 27.1656H13.6562C13.6562 28.1039 14.029 29.0037 14.6924 29.6672L17.5208 26.8387ZM17.6562 27.1656V15.8893H13.6562V27.1656H17.6562ZM17.6562 15.8893C17.6562 16.0068 17.6097 16.1282 17.5155 16.2219L14.6971 13.3834C14.0247 14.0511 13.6562 14.9557 13.6562 15.8893H17.6562ZM19.7353 20.6213C19.6035 20.5274 19.4914 20.4084 19.4056 20.2711L22.7974 18.1507C22.6044 17.8421 22.3525 17.5745 22.0561 17.3634L19.7353 20.6213ZM19.4056 20.2711C19.3198 20.1339 19.262 19.9811 19.2353 19.8215L23.1805 19.162C23.1205 18.803 22.9903 18.4594 22.7974 18.1507L19.4056 20.2711ZM19.2353 19.8215C19.2086 19.6618 19.2136 19.4985 19.2502 19.3408L23.1471 20.243C23.2292 19.8884 23.2406 19.5211 23.1805 19.162L19.2353 19.8215ZM19.2502 19.3408C19.2867 19.1832 19.3539 19.0342 19.448 18.9026L22.7021 21.2287C22.9138 20.9325 23.065 20.5976 23.1471 20.243L19.2502 19.3408ZM19.4475 18.9032L18.0154 20.9084L21.2705 23.2332L22.7026 21.228L19.4475 18.9032ZM18.0166 20.9067C18.1206 20.7614 18.255 20.6405 18.4104 20.5524L20.3837 24.0317C20.7332 23.8335 21.0354 23.5616 21.2693 23.2348L18.0166 20.9067ZM18.4104 20.5524C18.5658 20.4642 18.7385 20.411 18.9166 20.3963L19.2453 24.3827C19.6458 24.3497 20.0342 24.2299 20.3837 24.0317L18.4104 20.5524ZM18.9166 20.3963C19.0947 20.3816 19.2738 20.4058 19.4415 20.4673L18.0648 24.2229C18.442 24.3612 18.8449 24.4158 19.2453 24.3827L18.9166 20.3963ZM19.4415 20.4673C19.6093 20.5288 19.7616 20.6261 19.888 20.7524L17.0606 23.5819C17.3449 23.8659 17.6875 24.0846 18.0648 24.2229L19.4415 20.4673ZM19.8885 20.7529L19.0295 19.8939L16.2011 22.7223L17.0601 23.5813L19.8885 20.7529ZM19.0785 19.9446C19.296 20.178 19.4144 20.4867 19.4087 20.8056L15.4093 20.7351C15.3967 21.4524 15.663 22.1466 16.152 22.6715L19.0785 19.9446ZM19.4087 20.8056C19.4031 21.1246 19.2739 21.4289 19.0483 21.6545L16.2199 18.8261C15.7126 19.3334 15.422 20.0178 15.4093 20.7351L19.4087 20.8056ZM19.0483 21.6545C18.8227 21.8801 18.5184 22.0093 18.1995 22.0149L18.1289 18.0155C17.4116 18.0282 16.7272 18.3188 16.2199 18.8261L19.0483 21.6545ZM18.1995 22.0149C17.8805 22.0205 17.5718 21.9021 17.3385 21.6847L20.0653 18.7582C19.5405 18.2691 18.8462 18.0029 18.1289 18.0155L18.1995 22.0149ZM17.291 21.639L17.5084 21.8553L20.3301 19.0202L20.1128 18.8039L17.291 21.639ZM20.5463 21.6007L21.4505 20.3357L18.1963 18.0098L17.2921 19.2748L20.5463 21.6007ZM21.4514 20.3344C21.2618 20.6001 20.9744 20.7797 20.6524 20.8336L19.9924 16.8884C19.2682 17.0096 18.6218 17.4134 18.1953 18.0111L21.4514 20.3344ZM20.6524 20.8336C20.3375 20.8863 20.006 20.8144 19.7344 20.6206L22.0569 17.364C21.4533 16.9335 20.7094 16.7684 19.9924 16.8884L20.6524 20.8336ZM23.8695 20.8857C23.8695 21.2122 23.7398 21.5254 23.5089 21.7563L20.6805 18.9278C20.1613 19.4471 19.8695 20.1514 19.8695 20.8857H23.8695ZM23.5089 21.7563C23.2781 21.9872 22.9649 22.1169 22.6384 22.1169V18.1169C21.904 18.1169 21.1998 18.4086 20.6805 18.9278L23.5089 21.7563ZM22.6384 22.1169H25.2012V18.1169H22.6384V22.1169ZM25.2012 22.1169C24.8747 22.1169 24.5615 21.9872 24.3306 21.7563L27.1591 18.9278C26.6398 18.4086 25.9355 18.1169 25.2012 18.1169V22.1169ZM24.3306 21.7563C24.0997 21.5254 23.97 21.2122 23.97 20.8857H27.97C27.97 20.1514 27.6783 19.4471 27.1591 18.9278L24.3306 21.7563ZM23.97 20.8857C23.97 20.5592 24.0997 20.246 24.3306 20.0152L27.1591 22.8436C27.6783 22.3243 27.97 21.6201 27.97 20.8857H23.97ZM24.3306 20.0152C24.5615 19.7843 24.8747 19.6546 25.2012 19.6546V23.6546C25.9355 23.6546 26.6398 23.3628 27.1591 22.8436L24.3306 20.0152ZM25.2012 19.6546H22.6384V23.6546H25.2012V19.6546ZM22.6384 19.6546C22.9649 19.6546 23.2781 19.7843 23.5089 20.0152L20.6805 22.8436C21.1998 23.3628 21.904 23.6546 22.6384 23.6546V19.6546ZM23.5089 20.0152C23.7398 20.246 23.8695 20.5592 23.8695 20.8857H19.8695C19.8695 21.6201 20.1613 22.3243 20.6805 22.8436L23.5089 20.0152ZM23.8695 24.9544C23.8695 25.281 23.7398 25.5941 23.5089 25.825L20.6805 22.9966C20.1613 23.5158 19.8695 24.2201 19.8695 24.9544H23.8695ZM23.5089 25.825C23.278 26.0559 22.9649 26.1856 22.6384 26.1856V22.1856C21.904 22.1856 21.1998 22.4773 20.6805 22.9966L23.5089 25.825ZM22.6384 26.1856H25.2012V22.1856H22.6384V26.1856ZM25.2012 26.1856C24.8747 26.1856 24.5615 26.0559 24.3306 25.825L27.1591 22.9966C26.6398 22.4773 25.9355 22.1856 25.2012 22.1856V26.1856ZM24.3306 25.825C24.0997 25.5941 23.97 25.281 23.97 24.9544H27.97C27.97 24.2201 27.6783 23.5158 27.1591 22.9966L24.3306 25.825ZM23.97 24.9544C23.97 24.6279 24.0997 24.3148 24.3306 24.0839L27.1591 26.9123C27.6783 26.393 27.97 25.6888 27.97 24.9544H23.97ZM24.3306 24.0839C24.5615 23.853 24.8747 23.7233 25.2012 23.7233V27.7233C25.9355 27.7233 26.6398 27.4316 27.1591 26.9123L24.3306 24.0839ZM25.2012 23.7233H22.6384V27.7233H25.2012V23.7233ZM22.6384 23.7233C22.9649 23.7233 23.2781 23.853 23.5089 24.0839L20.6805 26.9123C21.1998 27.4316 21.904 27.7233 22.6384 27.7233V23.7233ZM23.5089 24.0839C23.7398 24.3148 23.8695 24.6279 23.8695 24.9544H19.8695C19.8695 25.6888 20.1613 26.393 20.6805 26.9123L23.5089 24.0839ZM22.6747 25.3984C22.8962 25.1032 23.0565 24.7668 23.1461 24.4088L19.2658 23.4374C19.3057 23.2782 19.3769 23.1286 19.4754 22.9974L22.6747 25.3984ZM23.1461 24.4088C23.2357 24.0508 23.2529 23.6785 23.1965 23.3138L19.2434 23.9243C19.2184 23.7621 19.226 23.5966 19.2658 23.4374L23.1461 24.4088ZM23.1965 23.3138C23.1402 22.9491 23.0116 22.5994 22.8181 22.2851L19.4117 24.3817C19.3256 24.242 19.2684 24.0865 19.2434 23.9243L23.1965 23.3138ZM22.8181 22.2851C22.6247 21.9708 22.3704 21.6984 22.0702 21.4838L19.7442 24.738C19.6107 24.6426 19.4977 24.5215 19.4117 24.3817L22.8181 22.2851ZM22.0702 21.4838C21.77 21.2692 21.4299 21.1168 21.0699 21.0355L20.189 24.9373C20.0289 24.9012 19.8777 24.8334 19.7442 24.738L22.0702 21.4838ZM21.0699 21.0355C20.7099 20.9543 20.3374 20.9458 19.9741 21.0106L20.6763 24.9484C20.5147 24.9772 20.349 24.9735 20.189 24.9373L21.0699 21.0355ZM19.9741 21.0106C19.6108 21.0753 19.2641 21.2121 18.9544 21.4128L21.1297 24.7696C20.9919 24.8588 20.8378 24.9196 20.6763 24.9484L19.9741 21.0106ZM18.9544 21.4128C18.6447 21.6134 18.3783 21.874 18.1707 22.1791L21.4781 24.4288C21.3858 24.5645 21.2674 24.6804 21.1297 24.7696L18.9544 21.4128ZM18.1975 22.1408L17.2923 23.4068L20.5462 25.7332L21.4513 24.4672L18.1975 22.1408ZM20.3334 23.1558L20.1161 22.9385L17.2877 25.7669L17.505 25.9842L20.3334 23.1558ZM20.0653 22.8895C19.5405 22.4004 18.8462 22.1341 18.1289 22.1468L18.1995 26.1461C17.8805 26.1518 17.5718 26.0334 17.3385 25.8159L20.0653 22.8895ZM18.1289 22.1468C17.4116 22.1594 16.7272 22.45 16.2199 22.9573L19.0483 25.7857C18.8227 26.0113 18.5184 26.1405 18.1995 26.1461L18.1289 22.1468ZM16.2199 22.9573C15.7126 23.4646 15.422 24.149 15.4093 24.8663L19.4087 24.9369C19.4031 25.2559 19.2739 25.5602 19.0483 25.7857L16.2199 22.9573ZM15.4093 24.8663C15.3967 25.5837 15.663 26.2779 16.152 26.8028L19.0785 24.0759C19.296 24.3093 19.4144 24.6179 19.4087 24.9369L15.4093 24.8663ZM16.2011 26.8535L17.0601 27.7126L19.8885 24.8842L19.0295 24.0251L16.2011 26.8535ZM17.0606 27.7131C17.3449 27.9971 17.6875 28.2159 18.0648 28.3542L19.4415 24.5986C19.6093 24.6601 19.7616 24.7573 19.888 24.8836L17.0606 27.7131ZM18.0648 28.3542C18.442 28.4925 18.8449 28.547 19.2453 28.514L18.9166 24.5275C19.0947 24.5128 19.2738 24.5371 19.4415 24.5986L18.0648 28.3542ZM19.2453 28.514C19.6458 28.481 20.0342 28.3612 20.3837 28.163L18.4104 24.6836C18.5658 24.5955 18.7385 24.5422 18.9166 24.5275L19.2453 28.514ZM20.3837 28.163C20.7332 27.9647 21.0354 27.6928 21.2693 27.3661L18.0166 25.0379C18.1206 24.8927 18.255 24.7717 18.4104 24.6836L20.3837 28.163ZM21.2702 27.3648L22.7023 25.3607L19.4478 23.0351L18.0157 25.0392L21.2702 27.3648Z" fill="url(#paint1_linear_279_2308)" mask="url(#path-2-inside-1_279_2308)"/>
<defs>
<linearGradient id="paint0_linear_279_2308" x1="21.637" y1="0" x2="21.637" y2="43.0553" gradientUnits="userSpaceOnUse">
<stop stop-color="#39409A"/>
<stop offset="1" stop-color="#0EDB8A"/>
</linearGradient>
<linearGradient id="paint1_linear_279_2308" x1="21.807" y1="14.3516" x2="21.807" y2="28.7033" gradientUnits="userSpaceOnUse">
<stop stop-color="#39409A"/>
<stop offset="1" stop-color="#0EDB8A"/>
</linearGradient>
</defs>
</svg>
