<svg width="44" height="44" viewBox="0 0 44 44" fill="none" xmlns="http://www.w3.org/2000/svg">
<circle cx="21.5276" cy="21.5276" r="21.5276" fill="#F18701"/>
<path d="M24.5026 26.8337C24.812 26.8337 25.1088 26.7107 25.3276 26.492C25.5464 26.2732 25.6693 25.9764 25.6693 25.667V18.667L22.1693 15.167H17.5026C17.1932 15.167 16.8964 15.2899 16.6776 15.5087C16.4589 15.7275 16.3359 16.0242 16.3359 16.3337V25.667C16.3359 25.9764 16.4589 26.2732 16.6776 26.492C16.8964 26.7107 17.1932 26.8337 17.5026 26.8337H24.5026ZM21.5859 16.3337L24.5026 19.2503H21.5859V16.3337ZM18.0859 18.667H19.8359V19.8337H18.0859V18.667ZM18.0859 21.0003H23.9193V22.167H18.0859V21.0003ZM18.0859 23.3337H23.9193V24.5003H18.0859V23.3337Z" fill="white"/>
</svg>
