<svg width="44" height="44" viewBox="0 0 44 44" fill="none" xmlns="http://www.w3.org/2000/svg">
<circle cx="21.6917" cy="21.5276" r="21.5276" fill="#0EDB8A"/>
<path fill-rule="evenodd" clip-rule="evenodd" d="M24.1994 16.0011C24.086 15.8199 23.919 15.6786 23.7215 15.5968C23.524 15.515 23.3059 15.4968 23.0976 15.5447L21.6192 15.8843C21.4677 15.9192 21.3103 15.9192 21.1588 15.8843L19.6804 15.5447C19.4721 15.4968 19.254 15.515 19.0566 15.5968C18.8591 15.6786 18.692 15.8199 18.5786 16.0011L17.7728 17.2871C17.6906 17.4186 17.5796 17.5296 17.448 17.6127L16.1621 18.4185C15.9812 18.5318 15.8401 18.6986 15.7583 18.8957C15.6765 19.0928 15.6581 19.3106 15.7057 19.5186L16.0453 20.9986C16.08 21.1499 16.08 21.307 16.0453 21.4583L15.7057 22.9375C15.658 23.1457 15.6762 23.3635 15.758 23.5609C15.8398 23.7582 15.981 23.9251 16.1621 24.0384L17.448 24.8442C17.5796 24.9265 17.6906 25.0375 17.7736 25.169L18.5794 26.455C18.8113 26.8258 19.2537 27.0092 19.6804 26.9113L21.1588 26.5718C21.3103 26.5369 21.4677 26.5369 21.6192 26.5718L23.0984 26.9113C23.3066 26.9591 23.5245 26.9408 23.7218 26.859C23.9191 26.7773 24.0861 26.636 24.1994 26.455L25.0052 25.169C25.0874 25.0375 25.1984 24.9265 25.33 24.8442L26.6168 24.0384C26.7978 23.9249 26.939 23.7578 27.0206 23.5603C27.1023 23.3629 27.1203 23.1449 27.0723 22.9367L26.7335 21.4583C26.6987 21.3068 26.6987 21.1493 26.7335 20.9978L27.0731 19.5186C27.121 19.3105 27.1028 19.0927 27.0212 18.8954C26.9396 18.6981 26.7985 18.5311 26.6176 18.4176L25.3308 17.6119C25.1994 17.5295 25.0884 17.4184 25.006 17.2871L24.1994 16.0011ZM23.7858 19.3945C23.8367 19.3009 23.8493 19.1913 23.821 19.0887C23.7927 18.9861 23.7257 18.8985 23.6341 18.8443C23.5425 18.79 23.4334 18.7735 23.3298 18.798C23.2262 18.8226 23.1362 18.8864 23.0787 18.9759L20.9286 22.6152L19.6302 21.3719C19.5917 21.3324 19.5456 21.301 19.4947 21.2797C19.4438 21.2583 19.3891 21.2474 19.3339 21.2477C19.2787 21.2479 19.2241 21.2593 19.1734 21.2811C19.1227 21.3028 19.0769 21.3346 19.0387 21.3745C19.0005 21.4144 18.9708 21.4616 18.9513 21.5132C18.9317 21.5648 18.9228 21.6199 18.9249 21.675C18.9271 21.7302 18.9404 21.7843 18.9639 21.8343C18.9875 21.8842 19.0209 21.9288 19.0621 21.9656L20.7345 23.5681C20.7793 23.6109 20.8331 23.6431 20.892 23.6621C20.951 23.6812 21.0134 23.6867 21.0748 23.6783C21.1361 23.6698 21.1948 23.6476 21.2464 23.6133C21.2979 23.579 21.3411 23.5335 21.3726 23.4802L23.7858 19.3945Z" fill="white"/>
</svg>
