<svg width="48" height="48" viewBox="0 0 48 48" fill="none" xmlns="http://www.w3.org/2000/svg">
<circle cx="23.5823" cy="23.5276" r="22.5276" fill="white" stroke="url(#paint0_linear_279_2302)" stroke-width="2"/>
<g clip-path="url(#clip0_279_2302)">
<path d="M24.7704 24.4997C24.7925 24.4997 24.8141 24.4932 24.8325 24.481C24.8509 24.4688 24.8653 24.4514 24.8738 24.431C24.8824 24.4107 24.8848 24.3882 24.8806 24.3665C24.8765 24.3448 24.866 24.3249 24.8506 24.3091L22.6529 22.0745C22.6373 22.0586 22.6173 22.0478 22.5955 22.0433C22.5737 22.0388 22.5511 22.041 22.5305 22.0494C22.5099 22.0579 22.4923 22.0722 22.4799 22.0907C22.4675 22.1092 22.4609 22.131 22.4609 22.1532V24.1633C22.4609 24.2525 22.4964 24.3381 22.5595 24.4012C22.6225 24.4642 22.7081 24.4997 22.7973 24.4997H24.7704Z" fill="#39409A"/>
<path d="M21.9266 25.0323C21.8115 24.9187 21.72 24.7835 21.6574 24.6343C21.5949 24.4852 21.5625 24.3251 21.5622 24.1634V21.5845H19.544C19.0686 21.5859 18.6131 21.7754 18.277 22.1115C17.9409 22.4477 17.7514 22.9031 17.75 23.3785V29.6574C17.75 30.1332 17.939 30.5895 18.2754 30.9259C18.6119 31.2624 19.0682 31.4514 19.544 31.4514H23.5804C24.0562 31.4514 24.5125 31.2624 24.8489 30.9259C25.1854 30.5895 25.3744 30.1332 25.3744 29.6574V25.3967H22.7955C22.6338 25.3965 22.4737 25.3642 22.3245 25.3016C22.1754 25.2391 22.0401 25.1475 21.9266 25.0323ZM26.832 20.9118H28.8051C28.8271 20.9118 28.8488 20.9053 28.8672 20.8931C28.8856 20.8809 28.8999 20.8635 28.9085 20.8431C28.9171 20.8228 28.9194 20.8003 28.9153 20.7786C28.9111 20.757 28.9007 20.737 28.8852 20.7212L26.6876 18.4866C26.672 18.4707 26.652 18.4599 26.6302 18.4554C26.6084 18.4509 26.5858 18.4531 26.5652 18.4615C26.5446 18.47 26.527 18.4843 26.5146 18.5028C26.5022 18.5213 26.4956 18.5431 26.4956 18.5653V20.5754C26.4956 20.6646 26.531 20.7502 26.5941 20.8133C26.6572 20.8764 26.7428 20.9118 26.832 20.9118Z" fill="#39409A"/>
<path d="M26.8332 21.8083C26.5068 21.8058 26.1946 21.675 25.9638 21.4443C25.733 21.2135 25.6023 20.9013 25.5998 20.5749V17.9961H22.5725C22.1266 17.9966 21.6991 18.174 21.3838 18.4893C21.0685 18.8046 20.8911 19.232 20.8906 19.6779V20.687H22.0713C22.222 20.6877 22.3711 20.718 22.51 20.7764C22.6489 20.8348 22.7749 20.9201 22.8808 21.0273L25.9407 24.1388C26.1541 24.3554 26.2733 24.6475 26.2723 24.9517V28.7599H27.7593C28.6706 28.7599 29.4117 28.0053 29.4117 27.0781V21.8083H26.8332Z" fill="#39409A"/>
</g>
<defs>
<linearGradient id="paint0_linear_279_2302" x1="23.5823" y1="2" x2="23.5823" y2="45.0553" gradientUnits="userSpaceOnUse">
<stop stop-color="#F18701"/>
<stop offset="1" stop-color="#39409A"/>
</linearGradient>
<clipPath id="clip0_279_2302">
<rect width="14.3518" height="14.3518" fill="white" transform="translate(16.4062 17.5479)"/>
</clipPath>
</defs>
</svg>
